<svg width="207" height="77" viewBox="0 0 207 77" fill="none" xmlns="http://www.w3.org/2000/svg">
<path d="M2.15199 29H6.1044V21.6278H10.2805C15.3196 21.6278 18.0256 18.6023 18.0256 14.4048C18.0256 10.2393 15.3516 7.18182 10.3338 7.18182H2.15199V29ZM6.1044 18.3786V10.4844H9.72656C12.6882 10.4844 13.9986 12.0824 13.9986 14.4048C13.9986 16.7273 12.6882 18.3786 9.74787 18.3786H6.1044ZM21.2882 29H25.1447V19.38C25.1447 17.3026 26.7108 15.8324 28.8308 15.8324C29.4806 15.8324 30.2903 15.9496 30.6206 16.0561V12.5085C30.269 12.4446 29.6618 12.402 29.2356 12.402C27.3606 12.402 25.7946 13.4673 25.198 15.3636H25.0275V12.6364H21.2882V29ZM39.7532 29.3196C43.5671 29.3196 46.1879 27.4553 46.8697 24.6108L43.2688 24.206C42.7468 25.5909 41.4684 26.3153 39.8065 26.3153C37.3136 26.3153 35.6623 24.6747 35.6303 21.8729H47.0295V20.6903C47.0295 14.9482 43.5778 12.4233 39.5508 12.4233C34.8633 12.4233 31.8058 15.8643 31.8058 20.9141C31.8058 26.049 34.8207 29.3196 39.7532 29.3196ZM35.641 19.2734C35.7582 17.1854 37.3029 15.4276 39.604 15.4276C41.82 15.4276 43.3114 17.0469 43.3327 19.2734H35.641ZM64.4398 12.6364H60.3382L56.5669 24.7919H56.3965L52.6358 12.6364H48.5236L54.351 29H58.6124L64.4398 12.6364ZM67.1085 29H70.965V12.6364H67.1085V29ZM69.0474 10.3139C70.2725 10.3139 71.274 9.37642 71.274 8.22585C71.274 7.06463 70.2725 6.12713 69.0474 6.12713C67.8116 6.12713 66.8102 7.06463 66.8102 8.22585C66.8102 9.37642 67.8116 10.3139 69.0474 10.3139ZM82.1751 29.3196C85.989 29.3196 88.6097 27.4553 89.2915 24.6108L85.6907 24.206C85.1687 25.5909 83.8903 26.3153 82.2283 26.3153C79.7354 26.3153 78.0842 24.6747 78.0522 21.8729H89.4514V20.6903C89.4514 14.9482 85.9996 12.4233 81.9727 12.4233C77.2852 12.4233 74.2276 15.8643 74.2276 20.9141C74.2276 26.049 77.2425 29.3196 82.1751 29.3196ZM78.0629 19.2734C78.18 17.1854 79.7248 15.4276 82.0259 15.4276C84.2418 15.4276 85.7333 17.0469 85.7546 19.2734H78.0629ZM96.0032 29H100.03L103.098 17.9418H103.322L106.39 29H110.407L115.041 12.6364H111.099L108.265 24.0781H108.105L105.165 12.6364H101.277L98.3363 24.142H98.1871L95.3107 12.6364H91.3796L96.0032 29Z" fill="black"/>
<path d="M2.52841 38.9091V68H8.49432V48.9943H8.7358L16.2642 67.858H20.3267L27.8551 49.0653H28.0966V68H34.0625V38.9091H26.4773L18.4659 58.4545H18.125L10.1136 38.9091H2.52841ZM45.2379 68.4119C48.4624 68.4119 50.5504 67.0057 51.6158 64.9744H51.7862V68H57.5249V53.2841C57.5249 48.0852 53.1214 45.8977 48.2635 45.8977C43.0362 45.8977 39.5987 48.3977 38.7607 52.375L44.3572 52.8295C44.7692 51.3807 46.0618 50.3153 48.2351 50.3153C50.2947 50.3153 51.4737 51.3523 51.4737 53.142V53.2273C51.4737 54.6335 49.9822 54.8182 46.1896 55.1875C41.8714 55.5852 37.9936 57.0341 37.9936 61.9062C37.9936 66.2244 41.076 68.4119 45.2379 68.4119ZM46.9709 64.2358C45.1101 64.2358 43.7749 63.3693 43.7749 61.7074C43.7749 60.0028 45.1811 59.1648 47.3118 58.8665C48.6328 58.6818 50.7919 58.3693 51.5163 57.8864V60.2017C51.5163 62.4886 49.6271 64.2358 46.9709 64.2358ZM62.2195 68H68.2706V55.6562C68.2706 52.9716 70.2308 51.125 72.9013 51.125C73.7393 51.125 74.8899 51.267 75.4581 51.4517V46.0824C74.9183 45.9545 74.1655 45.8693 73.5547 45.8693C71.1115 45.8693 69.1087 47.2898 68.3132 49.9886H68.0859V46.1818H62.2195V68ZM78.5866 68H84.6378V61.0682L86.2713 59.2074L92.223 68H99.3111L90.8026 55.6278L98.8991 46.1818H91.9531L84.9645 54.4631H84.6378V38.9091H78.5866V68ZM109.009 68.3551C112.532 68.3551 114.364 66.3239 115.202 64.5057H115.458V68H121.424V38.9091H115.387V49.8466H115.202C114.393 48.071 112.646 45.8977 108.995 45.8977C104.208 45.8977 100.16 49.6193 100.16 57.1193C100.16 64.4205 104.038 68.3551 109.009 68.3551ZM110.927 63.5398C107.958 63.5398 106.339 60.8977 106.339 57.0909C106.339 53.3125 107.93 50.7131 110.927 50.7131C113.867 50.7131 115.515 53.1989 115.515 57.0909C115.515 60.983 113.839 63.5398 110.927 63.5398ZM136.257 68.4261C142.876 68.4261 146.996 63.8949 146.996 57.1761C146.996 50.4148 142.876 45.8977 136.257 45.8977C129.638 45.8977 125.518 50.4148 125.518 57.1761C125.518 63.8949 129.638 68.4261 136.257 68.4261ZM136.286 63.7386C133.232 63.7386 131.669 60.9403 131.669 57.1335C131.669 53.3267 133.232 50.5142 136.286 50.5142C139.283 50.5142 140.845 53.3267 140.845 57.1335C140.845 60.9403 139.283 63.7386 136.286 63.7386ZM154.688 68H161.08L164.83 54.2784H165.099L168.849 68H175.256L181.179 46.1818H175.071L171.747 60.7557H171.562L167.983 46.1818H161.974L158.452 60.8409H158.253L154.872 46.1818H148.75L154.688 68ZM190.458 55.3864C190.472 52.5739 192.148 50.9261 194.592 50.9261C197.021 50.9261 198.484 52.517 198.469 55.1875V68H204.521V54.108C204.521 49.0227 201.538 45.8977 196.992 45.8977C193.754 45.8977 191.41 47.4886 190.43 50.0312H190.174V46.1818H184.407V68H190.458V55.3864Z" fill="#4ECCA3"/>
</svg>
